<?xml version="1.0" encoding="UTF-8" standalone="no"?>
<!-- Created with Inkscape (http://www.inkscape.org/) -->

<svg
   xmlns:dc="http://purl.org/dc/elements/1.1/"
   xmlns:cc="http://creativecommons.org/ns#"
   xmlns:rdf="http://www.w3.org/1999/02/22-rdf-syntax-ns#"
   xmlns:svg="http://www.w3.org/2000/svg"
   xmlns="http://www.w3.org/2000/svg"
   xmlns:xlink="http://www.w3.org/1999/xlink"
   xmlns:sodipodi="http://sodipodi.sourceforge.net/DTD/sodipodi-0.dtd"
   xmlns:inkscape="http://www.inkscape.org/namespaces/inkscape"
   sodipodi:docname="versuchsaufbau.svg"
   inkscape:version="0.48.1 r9760"
   version="1.1"
   id="svg2"
   height="169.25"
   width="461.1875">
  <sodipodi:namedview
     id="base"
     pagecolor="#ffffff"
     bordercolor="#666666"
     borderopacity="1.0"
     inkscape:pageopacity="0.0"
     inkscape:pageshadow="2"
     inkscape:zoom="1.6087473"
     inkscape:cx="290.53204"
     inkscape:cy="118.54944"
     inkscape:document-units="px"
     inkscape:current-layer="layer1"
     showgrid="false"
     fit-margin-top="0"
     fit-margin-left="10"
     fit-margin-right="0"
     fit-margin-bottom="0"
     inkscape:window-width="1280"
     inkscape:window-height="754"
     inkscape:window-x="-2"
     inkscape:window-y="27"
     inkscape:window-maximized="1"
     inkscape:snap-bbox="true"
     inkscape:bbox-paths="true"
     inkscape:bbox-nodes="true"
     inkscape:snap-bbox-edge-midpoints="true"
     inkscape:snap-bbox-midpoints="true"
     inkscape:object-paths="true"
     inkscape:object-nodes="true"
     inkscape:snap-intersection-paths="true"
     inkscape:snap-smooth-nodes="true"
     inkscape:snap-midpoints="true"
     inkscape:snap-object-midpoints="true"
     inkscape:snap-center="true"
     inkscape:snap-global="false"
     showguides="true" />
  <defs
     id="defs4" />
  <metadata
     id="metadata7">
    <rdf:RDF>
      <cc:Work
         rdf:about="">
        <dc:format>image/svg+xml</dc:format>
        <dc:type
           rdf:resource="http://purl.org/dc/dcmitype/StillImage" />
        <dc:title />
      </cc:Work>
    </rdf:RDF>
  </metadata>
  <g
     transform="translate(-67.375,-392.125)"
     id="layer1"
     inkscape:groupmode="layer"
     inkscape:label="Ebene 1">
    <path
       style="color:#000000;fill:#ffffff;fill-opacity:1;fill-rule:nonzero;stroke:#000000;stroke-width:0.49999991;stroke-linecap:round;stroke-linejoin:miter;stroke-miterlimit:10;stroke-opacity:1;stroke-dashoffset:2.75;marker:none;visibility:visible;display:inline;overflow:visible;enable-background:accumulate"
       d="m 141.48669,465.58717 353.57784,0 33.136,95.54716 -450.304985,0 z"
       id="rect4630"
       inkscape:connector-curvature="0"
       sodipodi:nodetypes="ccccc" />
    <path
       style="color:#000000;fill:#ffffff;fill-opacity:1;stroke:#000000;stroke-width:0.5;stroke-linecap:round;stroke-linejoin:miter;stroke-miterlimit:10;stroke-opacity:1;stroke-dasharray:none;stroke-dashoffset:2.75;marker:none;visibility:visible;display:inline;overflow:visible;enable-background:accumulate"
       d="M 135.09375 0.25 C 92.675799 1.324667 58.625 36.073062 58.625 78.75 C 58.625 122.10436 93.77065 157.25 137.125 157.25 C 180.47935 157.25 215.625 122.10436 215.625 78.75 C 215.625 35.39565 180.47935 0.25 137.125 0.25 C 136.44759 0.25 135.76705 0.23294179 135.09375 0.25 z M 137.125 9.9375 C 175.12963 9.9375 205.9375 40.745368 205.9375 78.75 C 205.9375 116.75463 175.12963 147.5625 137.125 147.5625 C 99.120368 147.5625 68.3125 116.75463 68.3125 78.75 C 68.3125 40.745368 99.120368 9.9375 137.125 9.9375 z "
       transform="translate(67.375,392.125)"
       id="path4099" />
    <rect
       y="491.89221"
       x="350.8996"
       height="41.540779"
       width="89"
       id="rect4871"
       style="color:#000000;fill:#ffffff;fill-opacity:1;stroke:#000000;stroke-width:0.49999997;stroke-linecap:round;stroke-linejoin:miter;stroke-miterlimit:10;stroke-opacity:1;stroke-dasharray:none;stroke-dashoffset:2.75;marker:none;visibility:visible;display:inline;overflow:visible;enable-background:accumulate" />
    <path
       transform="matrix(0.80873794,0,0,0.80873794,8.2351157,82.542571)"
       d="m 468,516.36218 a 26,26 0 1 1 -52,0 26,26 0 1 1 52,0 z"
       sodipodi:ry="26"
       sodipodi:rx="26"
       sodipodi:cy="516.36218"
       sodipodi:cx="442"
       id="path4873"
       style="color:#000000;fill:#ffffff;fill-opacity:1;stroke:#000000;stroke-width:0.61824721;stroke-linecap:round;stroke-linejoin:miter;stroke-miterlimit:10;stroke-opacity:1;stroke-dasharray:none;stroke-dashoffset:2.75;marker:none;visibility:visible;display:inline;overflow:visible;enable-background:accumulate"
       sodipodi:type="arc" />
    <path
       id="path4444"
       d="m 282.79647,472.85746 -6.49114,-0.16413 m 6.15498,5.94431 -6.47453,-0.49234 m 5.67791,6.21923 -6.39211,-1.14151 m 5.20369,6.80821 -6.32692,-1.46024 m 4.69635,7.00763 -6.15071,-2.08117 m 4.13481,7.50908 -6.04067,-2.38176 m 3.60468,7.62603 -5.77936,-2.96002 m 2.98589,8.03203 -5.6291,-3.23666 m 2.44252,8.06239 -5.29174,-3.76303 m -123.0845,2.98859 5.29174,-3.76304 m -8.40129,-1.11207 5.6291,-3.23666 m -8.38208,-1.85734 5.77936,-2.96002 m -8.13072,-2.32249 6.04067,-2.38176 m -8.01257,-3.06225 6.1507,-2.08117 m -7.6904,-3.49201 6.32691,-1.46024 m -7.46869,-4.216 6.39211,-1.14151 m -7.09372,-4.59745 6.47453,-0.49233 m -6.76267,-5.29028 6.49115,-0.16413 m -6.36217,-5.61611 6.47454,0.49233 m -5.90949,-6.25454 6.44143,0.81852 m -5.47597,-6.51923 6.32691,1.46024 m -4.91239,-7.07484 6.24629,1.77375 m -4.4471,-7.26888 6.04067,2.38176 m -3.80942,-7.72482 5.91671,2.67489 m -3.31997,-7.84138 5.6291,3.23666 m -2.63672,-8.1939 5.46641,3.50445 m -2.13234,-8.22896 5.10548,4.01212 m -1.42268,-8.48053 4.908,4.25142 m -0.91286,-8.43193 4.48068,4.69963 m -0.1885,-8.58643 4.25142,4.908 m 0.31688,-8.45328 3.76303,5.29173 m 1.0487,-8.51303 3.50444,5.46641 m 1.53844,-8.2962 2.96001,5.77936 m 2.27172,-8.26073 2.67489,5.91672 m 2.73271,-7.96497 2.08116,6.1507 m 3.45987,-7.83093 1.77375,6.24629 m 3.87795,-7.46818 1.14151,6.39211 m 4.58749,-7.23013 0.81852,6.44144 m 4.95079,-6.82266 0.16414,6.49115 m 5.62565,-6.47469 -0.16413,6.49115 m 5.92846,-6.04431 -0.81851,6.44143 m 6.54257,-5.57102 -1.14151,6.3921 m 6.77859,-5.10682 -1.77375,6.24629 m 7.30519,-4.53524 -2.08116,6.1507 m 7.4653,-4.04291 -2.67489,5.91672 m 7.89285,-3.40677 -2.96002,5.77936 m 7.97152,-2.89497 -3.50445,5.46641 m 8.29866,-2.21919 -3.76303,5.29174 m 8.29285,-1.69748 -4.25141,4.90799 m 8.5227,-0.99821 -4.48068,4.69963 m 8.43087,-0.47626 -4.90799,4.25141 m 8.5668,0.2368 -5.10548,4.01211 m 8.38865,0.74858 -5.46642,3.50445 m 8.42405,1.46496 -5.77936,2.96001 m 8.32767,2.23946 -5.91672,2.6749 m 8.10439,2.67776 -6.15071,2.08117 m 7.90311,3.43742 -6.24628,1.77374 m 7.61662,3.84372 -6.39211,1.14151 m 7.30597,4.57591 -6.44143,0.81851 m 6.97377,4.94701 -6.47453,0.49233"
       style="fill:none;stroke:#000000;stroke-width:0.5;stroke-linecap:butt;stroke-linejoin:miter;stroke-opacity:1"
       inkscape:connector-curvature="0"
       sodipodi:nodetypes="cccccccccccccccccccccccccccccccccccccccccccccccccccccccccccccccccccccccccccccccccccccccccccccccccccccccccccccccccccccccc" />
    <path
       style="color:#000000;fill:#cccccc;fill-opacity:1;stroke:#000000;stroke-width:0.50000006;stroke-linecap:round;stroke-linejoin:miter;stroke-miterlimit:10;stroke-opacity:1;stroke-dasharray:none;stroke-dashoffset:2.75;marker:none;visibility:visible;display:inline;overflow:visible;enable-background:accumulate"
       d="m 204.49998,412.33812 c -31.73975,0 -57.47221,26.20339 -57.47221,58.52406 0,32.32065 25.73246,58.52406 57.47221,58.52406 31.73976,0 57.47225,-26.20342 57.47225,-58.52406 0,-32.32067 -25.73248,-58.52406 -57.47225,-58.52406 z m 0,13.18889 c 7.48782,0 14.55395,1.85722 20.75388,5.16543 l -20.75388,29.10471 -20.75386,-29.10471 c 6.20657,-3.3167 13.25822,-5.16543 20.75386,-5.16543 z m 31.28531,12.97912 c 8.30654,8.27032 13.46683,19.79537 13.46683,32.56582 0,2.58996 -0.23642,5.13175 -0.64373,7.60392 l -33.57698,-11.09125 20.75388,-29.07848 z m -62.59632,0.0262 20.77961,29.0785 -33.57698,11.09125 c -0.4106,-2.4807 -0.64373,-5.03079 -0.64373,-7.63015 0,-12.75766 5.14528,-24.26703 13.44108,-32.5396 z m 37.82558,41.66432 33.60271,11.11748 c -6.3988,13.13062 -18.8293,22.66717 -33.60271,24.85699 l 0,-35.97447 z m -13.02909,0.0262 0,35.94825 c -14.76301,-2.19542 -27.17642,-11.73601 -33.57698,-24.85702 l 33.57698,-11.09127 z"
       id="path4099-6"
       inkscape:connector-curvature="0" />
    <path
       sodipodi:type="spiral"
       style="fill:none;stroke:#000000;stroke-width:1.15416777;stroke-linecap:butt;stroke-linejoin:miter;stroke-opacity:1"
       id="path5604"
       sodipodi:cx="473.66049"
       sodipodi:cy="128.90633"
       sodipodi:expansion="0.75999999"
       sodipodi:revolution="3.76"
       sodipodi:radius="70.96067"
       sodipodi:argument="-18.878065"
       sodipodi:t0="0.27000001"
       d="m 499.83502,130.66253 c 0.81986,15.87714 -12.77621,28.74691 -28.25057,29.18524 -18.39758,0.52113 -33.18178,-15.30867 -33.40993,-33.32241 -0.2636,-20.81189 17.71629,-37.443159 38.15996,-37.472212 23.14016,-0.03288 41.56042,20.025352 41.3999,42.810352 -0.17891,25.39638 -22.2536,45.55519 -47.30593,45.21326 -27.59079,-0.37658 -49.44396,-24.41376 -48.92761,-51.67013 0.56323,-29.731335 26.51536,-53.239662 55.92069,-52.554968 31.8242,0.741016 56.95264,28.565748 56.10491,60.071418 -0.91148,33.87444 -30.57078,60.59138 -64.13338,59.58528 -35.88619,-1.07575 -64.1629,-32.53519 -63.0026,-68.11558 1.20566,-36.971308 32.98574,-66.484795 69.70511,-66.405331"
       transform="matrix(0.43309167,0,0,0.43333349,0.72584024,418.15377)" />
    <path
       style="color:#000000;fill:#808080;fill-opacity:1;fill-rule:nonzero;stroke:#000000;stroke-width:0.49999997;stroke-linecap:square;stroke-linejoin:round;stroke-miterlimit:10;stroke-opacity:1;stroke-dasharray:none;stroke-dashoffset:2.75;marker:none;visibility:visible;display:inline;overflow:visible;enable-background:accumulate"
       d="m 197.70312,503.4485 c -3.41496,0 -6.15625,2.7413 -6.15625,6.15625 l 0,13.59375 c 0,3.41496 2.74129,6.1875 6.15625,6.1875 l 13.59375,0 c 3.41495,0 6.1875,-2.77254 6.1875,-6.1875 l 0,-13.59375 c 0,-3.41495 -2.77255,-6.15625 -6.1875,-6.15625 l -13.59375,0 z m 0.75,6.90625 12.125,0 0,12.125 -12.125,0 0,-12.125 z"
       id="rect5608"
       inkscape:connector-curvature="0" />
    <path
       sodipodi:nodetypes="cccccc"
       inkscape:connector-curvature="0"
       id="rect3111"
       d="m 199.912,443.74839 4.38787,-10.04596 4.75351,10.04596 0,72.40015 -9.14138,0 z"
       style="color:#000000;fill:#ffffff;fill-opacity:1;stroke:#000000;stroke-width:0.5;stroke-linecap:round;stroke-linejoin:miter;stroke-miterlimit:10;stroke-opacity:1;stroke-dashoffset:2.75;marker:none;visibility:visible;display:inline;overflow:visible;enable-background:accumulate" />
    <rect
       style="color:#000000;fill:#ffffff;fill-opacity:1;fill-rule:nonzero;stroke:#ffffff;stroke-width:0.49999997;stroke-linecap:round;stroke-linejoin:miter;stroke-miterlimit:10;stroke-opacity:1;stroke-dasharray:none;stroke-dashoffset:2.75;marker:none;visibility:visible;display:inline;overflow:visible;enable-background:accumulate"
       id="rect4633"
       width="156.37128"
       height="25.594402"
       x="126.31436"
       y="529.88623" />
    <path
       style="fill:none;stroke:#000000;stroke-width:0.5;stroke-linecap:butt;stroke-linejoin:round;stroke-opacity:1"
       d="m 202.98215,426.69276 0,0"
       id="path4661"
       inkscape:connector-curvature="0" />
    <path
       id="path4663-7-5"
       style="fill:#cccccc;stroke:#000000;stroke-width:0.5;stroke-linecap:round;stroke-linejoin:round;stroke-opacity:1"
       d="m 204.28037,406.44289 -4.09375,6 0.02,13.25954 4.09325,6 3.96925,-6 -0.02,-13.22829 z"
       inkscape:connector-curvature="0"
       sodipodi:nodetypes="ccccccc" />
    <path
       style="fill:none;stroke:#000000;stroke-width:0.5;stroke-linecap:square;stroke-linejoin:miter;stroke-opacity:1"
       d="m 152.34672,529.398 15.68728,-0.01"
       id="path5571"
       inkscape:connector-curvature="0"
       sodipodi:nodetypes="cc" />
    <path
       style="fill:none;stroke:#000000;stroke-width:0.5;stroke-linecap:square;stroke-linejoin:miter;stroke-opacity:1"
       d="m 240.82564,529.398 15.68728,-0.01"
       id="path5571-5"
       inkscape:connector-curvature="0"
       sodipodi:nodetypes="cc" />
    <rect
       style="color:#000000;fill:#ffffff;fill-opacity:1;fill-rule:nonzero;stroke:#000000;stroke-width:0.50001293;stroke-linecap:square;stroke-linejoin:round;stroke-miterlimit:10;stroke-opacity:1;stroke-dasharray:none;stroke-dashoffset:2.75;marker:none;visibility:visible;display:inline;overflow:visible;enable-background:accumulate"
       id="rect5593"
       width="167.7059"
       height="6.4872637"
       x="103.20336"
       y="536.46875"
       transform="matrix(0.9846253,-0.17467974,0.18468185,0.98279836,0,0)"
       rx="3.1928847"
       ry="2.9518507" />
    <path
       sodipodi:type="arc"
       style="color:#000000;fill:#ffffff;fill-opacity:1;fill-rule:nonzero;stroke:#000000;stroke-width:0.5;stroke-linecap:square;stroke-linejoin:round;stroke-miterlimit:10;stroke-opacity:1;stroke-dasharray:none;stroke-dashoffset:2.75;marker:none;visibility:visible;display:inline;overflow:visible;enable-background:accumulate"
       id="path5598"
       sodipodi:cx="99.500587"
       sodipodi:cy="82.833351"
       sodipodi:rx="2.1427515"
       sodipodi:ry="2.1427515"
       d="m 101.64334,82.833351 c 0,1.183409 -0.95934,2.142752 -2.142753,2.142752 -1.183408,0 -2.142751,-0.959343 -2.142751,-2.142752 0,-1.183409 0.959343,-2.142751 2.142751,-2.142751 1.183413,0 2.142753,0.959342 2.142753,2.142751 z"
       transform="translate(117.83781,393.00408)" />
    <path
       sodipodi:type="arc"
       style="color:#000000;fill:#ffffff;fill-opacity:1;fill-rule:nonzero;stroke:#000000;stroke-width:0.5;stroke-linecap:square;stroke-linejoin:round;stroke-miterlimit:10;stroke-opacity:1;stroke-dasharray:none;stroke-dashoffset:2.75;marker:none;visibility:visible;display:inline;overflow:visible;enable-background:accumulate"
       id="path5631"
       sodipodi:cx="-78.457672"
       sodipodi:cy="83.877258"
       sodipodi:rx="2.4174633"
       sodipodi:ry="2.4174633"
       d="m -76.040209,83.877258 c 0,1.335128 -1.082335,2.417464 -2.417463,2.417464 -1.335128,0 -2.417463,-1.082336 -2.417463,-2.417464 0,-1.335128 1.082335,-2.417463 2.417463,-2.417463 1.335128,0 2.417463,1.082335 2.417463,2.417463 z"
       transform="translate(282.94036,389.33814)" />
    <path
       sodipodi:type="arc"
       style="color:#000000;fill:#808080;fill-opacity:1;fill-rule:nonzero;stroke:#000000;stroke-width:1.29999995;stroke-linecap:square;stroke-linejoin:round;stroke-miterlimit:10;stroke-opacity:1;stroke-dasharray:none;stroke-dashoffset:2.75;marker:none;visibility:visible;display:inline;overflow:visible;enable-background:accumulate"
       id="path5595-4"
       sodipodi:cx="419.75952"
       sodipodi:cy="226.50758"
       sodipodi:rx="5.714004"
       sodipodi:ry="5.714004"
       d="m 425.47353,226.50758 a 5.714004,5.714004 0 1 1 -11.42801,0 5.714004,5.714004 0 1 1 11.42801,0 z"
       transform="matrix(0.3846154,0,0,0.3846154,43.036712,424.69745)" />
    <use
       x="0"
       y="0"
       xlink:href="#path5595-4"
       id="use5669"
       transform="translate(158.60562,-28.098006)"
       width="389.5"
       height="157.5"
       style="fill:#808080" />
    <text
       xml:space="preserve"
       style="font-size:10px;font-style:normal;font-weight:normal;line-height:125%;letter-spacing:0px;word-spacing:0px;fill:#000000;fill-opacity:1;stroke:none;font-family:Sans"
       x="394.41815"
       y="516.23682"
       id="text5671"
       sodipodi:linespacing="125%"><tspan
         sodipodi:role="line"
         id="tspan5673"
         x="394.41815"
         y="516.23682">Motor</tspan></text>
    <text
       xml:space="preserve"
       style="font-size:10px;font-style:normal;font-weight:normal;line-height:125%;letter-spacing:0px;word-spacing:0px;fill:#000000;fill-opacity:1;stroke:none;font-family:Sans"
       x="306.7016"
       y="550.1474"
       id="text5675"
       sodipodi:linespacing="125%"><tspan
         sodipodi:role="line"
         id="tspan5677"
         x="306.7016"
         y="550.1474">Bremsspule</tspan></text>
    <text
       xml:space="preserve"
       style="font-size:10px;font-style:normal;font-weight:normal;line-height:125%;letter-spacing:0px;word-spacing:0px;fill:#000000;fill-opacity:1;stroke:none;font-family:Sans"
       x="306.7016"
       y="403.81839"
       id="text5679"
       sodipodi:linespacing="125%"><tspan
         sodipodi:role="line"
         id="tspan5681"
         x="306.7016"
         y="403.81839">Feste Skala</tspan></text>
    <text
       xml:space="preserve"
       style="font-size:10px;font-style:normal;font-weight:normal;line-height:125%;letter-spacing:0px;word-spacing:0px;fill:#000000;fill-opacity:1;stroke:none;font-family:Sans"
       x="307.02386"
       y="422.09744"
       id="text5683"
       sodipodi:linespacing="125%"><tspan
         sodipodi:role="line"
         id="tspan5685"
         x="307.02386"
         y="422.09744">Zeiger der Schwungmasse</tspan></text>
    <text
       xml:space="preserve"
       style="font-size:10px;font-style:normal;font-weight:normal;line-height:125%;letter-spacing:0px;word-spacing:0px;fill:#000000;fill-opacity:1;stroke:none;font-family:Sans"
       x="307.02386"
       y="455.22293"
       id="text5687"
       sodipodi:linespacing="125%"><tspan
         sodipodi:role="line"
         id="tspan5689"
         x="307.02386"
         y="455.22293">Spiralfeder</tspan></text>
    <text
       xml:space="preserve"
       style="font-size:10px;font-style:normal;font-weight:normal;line-height:125%;letter-spacing:0px;word-spacing:0px;fill:#000000;fill-opacity:1;stroke:none;font-family:Sans"
       x="306.7016"
       y="438.10672"
       id="text5691"
       sodipodi:linespacing="125%"><tspan
         sodipodi:role="line"
         id="tspan5693"
         x="306.7016"
         y="438.10672">Hebel</tspan></text>
    <text
       xml:space="preserve"
       style="font-size:10px;font-style:normal;font-weight:normal;line-height:125%;letter-spacing:0px;word-spacing:0px;fill:#000000;fill-opacity:1;stroke:none;font-family:Sans"
       x="306.7016"
       y="476.02441"
       id="text5695"
       sodipodi:linespacing="125%"><tspan
         sodipodi:role="line"
         id="tspan5697"
         x="306.7016"
         y="476.02441">Drehachse</tspan></text>
    <path
       style="fill:none;stroke:#000000;stroke-width:0.5;stroke-linecap:round;stroke-linejoin:miter;stroke-opacity:1"
       d="m 92.61865,135.12234 36.6745,19.89125 58.3899,0"
       id="path5699"
       inkscape:connector-curvature="0"
       transform="translate(115.75,392.125)"
       sodipodi:nodetypes="ccc" />
    <path
       style="fill:none;stroke:#000000;stroke-width:0.5;stroke-linecap:round;stroke-linejoin:miter;stroke-opacity:1"
       d="m 204.639,473.346 98.79401,0"
       id="path5701"
       inkscape:connector-curvature="0"
       sodipodi:nodetypes="cc" />
    <path
       style="fill:none;stroke:#000000;stroke-width:0.5;stroke-linecap:round;stroke-linejoin:miter;stroke-opacity:1"
       d="m 111.8883,67.989358 9.79475,-8.200411 66,0"
       id="path5705"
       inkscape:connector-curvature="0"
       transform="translate(115.75,392.125)"
       sodipodi:nodetypes="ccc" />
    <path
       style="fill:none;stroke:#000000;stroke-width:0.5;stroke-linecap:round;stroke-linejoin:miter;stroke-opacity:1"
       d="m 88.267439,53.070918 82.051421,-10.567229 17.36419,0"
       id="path5707"
       inkscape:connector-curvature="0"
       transform="translate(115.75,392.125)"
       sodipodi:nodetypes="ccc" />
    <path
       style="fill:none;stroke:#000000;stroke-width:0.5;stroke-linecap:round;stroke-linejoin:miter;stroke-opacity:1"
       d="m 88.47787,26.94766 99.20518,0.01599"
       id="path5709"
       inkscape:connector-curvature="0"
       transform="translate(115.75,392.125)"
       sodipodi:nodetypes="cc" />
    <path
       style="fill:none;stroke:#000000;stroke-width:0.5;stroke-linecap:round;stroke-linejoin:miter;stroke-opacity:1"
       d="m 131.15795,12.045207 8.08083,-3.7296103 48.44427,0"
       id="path5711"
       inkscape:connector-curvature="0"
       transform="translate(115.75,392.125)"
       sodipodi:nodetypes="ccc" />
  </g>
</svg>
